<svg width="25" height="22" viewBox="0 0 25 22" fill="none" xmlns="http://www.w3.org/2000/svg">
<path fill-rule="evenodd" clip-rule="evenodd" d="M4.44557 0.402729L0.0182019 9.70242C0.00135449 9.73701 -0.00398434 9.77608 0.00296614 9.81392C0.00991663 9.85176 0.0287918 9.88639 0.0568314 9.91273L12.0141 21.3707C12.048 21.4032 12.0933 21.4214 12.1403 21.4214C12.1874 21.4214 12.2326 21.4032 12.2666 21.3707L24.2239 9.91345C24.2519 9.8871 24.2708 9.85248 24.2777 9.81464C24.2847 9.77679 24.2793 9.73772 24.2625 9.70313L19.8351 0.403445C19.8208 0.372213 19.7979 0.345755 19.7689 0.327234C19.74 0.308713 19.7064 0.298912 19.672 0.299002H4.6101C4.57559 0.298573 4.5417 0.308138 4.5125 0.326543C4.48331 0.344948 4.46006 0.371408 4.44557 0.402729Z" fill="#50AF95"/>
<path fill-rule="evenodd" clip-rule="evenodd" d="M13.6767 10.6577C13.5908 10.6641 13.1473 10.6906 12.158 10.6906C11.3711 10.6906 10.8124 10.667 10.6164 10.6577C7.57537 10.5239 5.30553 9.99455 5.30553 9.36074C5.30553 8.72693 7.57537 8.19827 10.6164 8.06236V10.1305C10.8152 10.1448 11.3847 10.1784 12.1716 10.1784C13.1158 10.1784 13.5887 10.139 13.6738 10.1312V8.06379C16.7084 8.19899 18.9732 8.72836 18.9732 9.36074C18.9732 9.99311 16.7091 10.5225 13.6738 10.657L13.6767 10.6577ZM13.6767 7.8499V5.99926H17.9116V3.17716H6.38143V5.99926H10.6157V7.84918C7.17405 8.00727 4.58588 8.68901 4.58588 9.50595C4.58588 10.3229 7.17405 11.0039 10.6157 11.1627V17.0931H13.676V11.1606C17.1097 11.0025 19.6936 10.3215 19.6936 9.50524C19.6936 8.68901 17.1118 8.00799 13.676 7.84918L13.6767 7.8499Z" fill="white"/>
</svg>
